<?xml version="1.0" encoding="UTF-8"?>
<svg id="a" data-name="Layer 1" xmlns="http://www.w3.org/2000/svg" viewBox="0 0 160 160">
  <path d="M154.86,19.74v120.51c0,1.41-.2,2.79-.56,4.09-1.78,6.34-7.59,10.98-14.5,10.98H19.29c-8.32,0-15.06-6.74-15.06-15.06V19.74c0-8.32,6.74-15.06,15.06-15.06h120.51c8.32,0,15.06,6.74,15.06,15.06Z" style="fill: #4cda82;"/>
  <path d="M105.86,62.98c-5.03,4.05-9.69,8.54-13.91,13.42-.52.59-1.48.24-1.48-.55v-12.87h-.39l-30.81,20.01c-3.94,2.56-9.03,2.56-12.97,0l-30.81-20.01h-.41v71.81c0,5.27,4.27,9.56,9.56,9.56h129.66c.37-1.3.56-2.67.56-4.09V40.53c-18.34,3.3-35.09,11.19-49,22.45ZM44.63,125.79c-.72,1.33-1.83,2.44-3.15,3.15-9.64,5.17-19.3-4.54-14.08-14.11.72-1.31,1.81-2.4,3.12-3.12,9.57-5.23,19.29,4.43,14.11,14.08ZM76.67,126.17c-1.07,1.84-2.89,3.13-4.94,3.7-1.87.52-3.54.65-5.01.38-4.83-.72-8.51-4.89-8.51-9.92,0-5.57,4.5-10.07,10.07-10.07,1.21,0,2.39.2,3.46.61,5.5,2.01,8.77,8.75,4.92,15.31Z"/>
  <path d="M76.67,126.17c-1.07,1.84-2.89,3.13-4.94,3.7-1.87.52-3.54.65-5.01.38-4.83-.72-8.51-4.89-8.51-9.92,0-5.57,4.5-10.07,10.07-10.07,1.21,0,2.39.2,3.46.61,5.5,2.01,8.77,8.75,4.92,15.31Z" style="fill: #fff;"/>
  <path d="M44.63,125.79c-.72,1.33-1.83,2.44-3.15,3.15-9.64,5.17-19.3-4.54-14.08-14.11.72-1.31,1.81-2.4,3.12-3.12,9.57-5.23,19.29,4.43,14.11,14.08Z" style="fill: #fff;"/>
</svg>